<svg id="svg" width="70" height="70" version="1.1" xmlns="http://www.w3.org/2000/svg" viewBox="0 0 640 640"><path d="M0,0 L640,0 L640,640 L0,640 Z M321,27 L296,42 L267,59 L245,72 L216,89 L189,105 L165,119 L141,133 L112,150 L88,164 L79,170 L78,172 L78,260 L87,255 L106,243 L130,228 L154,213 L180,197 L209,180 L237,163 L269,144 L297,127 L314,117 L322,116 L333,122 L358,136 L379,148 L388,153 L392,152 L414,138 L437,123 L457,110 L457,108 L438,96 L416,82 L390,66 L364,51 L335,34 L323,27 Z M533,147 L518,156 L489,173 L461,190 L442,202 L434,208 L433,280 L428,282 L399,299 L370,316 L345,331 L329,340 L320,343 L314,342 L286,325 L254,306 L226,289 L206,277 L202,278 L173,295 L145,312 L120,327 L94,342 L80,351 L78,361 L78,461 L79,478 L82,483 L98,495 L105,499 L111,498 L127,489 L144,478 L163,466 L182,454 L190,451 L196,451 L198,538 L199,540 L204,539 L226,527 L240,519 L256,509 L261,503 L261,421 L262,402 L272,403 L287,411 L302,421 L319,431 L323,434 L328,432 L345,421 L369,406 L401,387 L426,372 L450,357 L480,339 L502,325 L524,312 L547,298 L559,290 L561,288 L562,259 L562,163 L552,156 L537,147 Z M560,383 L542,394 L510,413 L489,426 L457,445 L429,462 L407,475 L385,488 L363,501 L331,520 L306,535 L285,547 L257,563 L247,569 L247,571 L263,580 L282,590 L302,603 L319,613 L329,608 L347,598 L364,588 L392,571 L416,556 L444,539 L472,522 L487,513 L507,501 L533,486 L558,471 L561,468 L562,383 Z " transform="translate(0,0)" style="fill: #00000000;"/><path d="M0,0 L6,1 L28,15 L29,16 L29,112 L28,141 L19,148 L-1,160 L-26,175 L-47,188 L-68,201 L-88,213 L-112,228 L-134,241 L-166,260 L-188,274 L-208,287 L-213,285 L-226,277 L-242,267 L-255,259 L-265,255 L-271,255 L-272,274 L-272,356 L-278,363 L-293,372 L-313,383 L-331,393 L-334,393 L-335,391 L-337,304 L-347,305 L-361,313 L-381,326 L-400,338 L-418,349 L-424,352 L-430,351 L-436,347 L-452,335 L-454,331 L-455,314 L-455,214 L-453,204 L-437,194 L-413,180 L-391,167 L-363,150 L-331,131 L-327,130 L-295,149 L-267,166 L-235,185 L-217,196 L-209,195 L-193,187 L-171,174 L-149,161 L-120,144 L-102,133 L-100,133 L-99,61 L-91,55 L-67,40 L-35,21 L-13,8 Z " transform="translate(533,147)" style="fill: #B382F7;"/><path d="M0,0 L6,2 L38,21 L64,36 L92,53 L114,67 L136,81 L136,83 L116,96 L99,107 L82,118 L70,126 L65,125 L38,110 L14,96 L4,90 L-4,89 L-16,95 L-44,112 L-76,131 L-104,148 L-126,161 L-151,176 L-175,191 L-199,206 L-223,221 L-242,233 L-243,233 L-243,145 L-238,140 L-214,126 L-188,111 L-166,98 L-137,81 L-108,64 L-79,47 L-52,31 L-23,14 L-8,5 Z " transform="translate(321,27)" style="fill: #DE7CF6;"/><path d="M0,0 L2,0 L1,85 L-7,91 L-29,104 L-55,119 L-75,131 L-103,148 L-131,165 L-157,181 L-178,194 L-198,206 L-222,220 L-240,230 L-255,222 L-275,209 L-293,199 L-310,190 L-313,188 L-312,185 L-285,170 L-264,158 L-235,141 L-207,124 L-178,107 L-151,91 L-119,72 L-91,55 L-61,37 L-33,20 L-6,4 Z " transform="translate(560,383)" style="fill: #9987FE;"/></svg>